<?xml version="1.0" standalone="no"?>
<!DOCTYPE svg PUBLIC "-//W3C//DTD SVG 20010904//EN"
 "http://www.w3.org/TR/2001/REC-SVG-20010904/DTD/svg10.dtd">
<svg version="1.0" xmlns="http://www.w3.org/2000/svg"
 width="1710.000000pt" height="1710.000000pt" viewBox="0 0 1710.000000 1710.000000"
 preserveAspectRatio="xMidYMid meet">
<metadata>
Created by potrace 1.14, written by Peter Selinger 2001-2017
</metadata>
<g transform="translate(0.000000,1710.000000) scale(0.100000,-0.100000)"
fill="#000000" stroke="none">
<path d="M6127 17085 c4 -13 0 -15 -21 -11 -15 3 -25 2 -22 -2 2 -4 -2 -13
-10 -20 -11 -10 -14 -10 -14 0 0 6 -7 3 -15 -8 -8 -10 -15 -15 -15 -10 0 6 -7
1 -16 -10 -8 -10 -13 -12 -9 -4 6 13 5 13 -7 0 -14 -16 -57 -38 -71 -36 -5 0
-13 -7 -18 -17 -6 -9 -14 -15 -20 -12 -5 4 -9 1 -9 -4 0 -6 -7 -11 -15 -11 -8
0 -15 -4 -15 -10 0 -5 -6 -9 -12 -7 -7 1 -12 -3 -11 -9 1 -6 -9 -10 -23 -8
-20 2 -23 0 -14 -11 9 -11 6 -13 -15 -11 -14 2 -28 -1 -32 -7 -3 -6 -1 -7 5
-3 7 4 12 3 12 -2 0 -6 -11 -13 -25 -16 -14 -4 -23 -11 -20 -16 3 -6 -1 -7 -9
-4 -9 3 -16 1 -16 -4 0 -6 -10 -14 -22 -18 -13 -3 -31 -15 -41 -25 -10 -11
-22 -17 -28 -14 -8 6 -13 -8 -10 -27 0 -4 -6 -5 -14 -2 -8 4 -15 2 -15 -4 0
-5 -13 -15 -30 -22 -16 -7 -28 -15 -26 -19 3 -4 -9 -13 -25 -20 -16 -7 -27
-17 -23 -22 3 -5 2 -9 -3 -8 -21 4 -33 -2 -33 -17 0 -8 -4 -12 -10 -9 -5 3
-10 1 -10 -6 0 -7 -3 -10 -6 -6 -3 3 -18 -7 -32 -22 -15 -15 -22 -20 -17 -11
6 9 -3 2 -20 -14 -16 -17 -33 -30 -37 -29 -4 2 -8 -5 -8 -15 0 -14 -2 -15 -10
-2 -9 13 -10 13 -10 0 0 -16 -39 -46 -53 -42 -5 1 -6 -2 -2 -8 3 -5 1 -10 -5
-10 -6 0 -8 -4 -5 -10 4 -6 -6 -10 -22 -10 -22 0 -25 -2 -13 -10 11 -7 11 -10
2 -10 -7 0 -29 -16 -48 -35 -19 -20 -39 -33 -44 -30 -6 4 -7 -2 -3 -11 4 -11
2 -15 -4 -11 -6 4 -14 0 -17 -9 -3 -8 -11 -12 -17 -8 -7 4 -9 3 -6 -3 4 -6 -9
-23 -28 -38 -19 -16 -32 -32 -29 -37 3 -4 0 -8 -6 -8 -15 0 -76 -61 -72 -73 1
-4 -2 -6 -8 -2 -5 3 -10 1 -10 -5 0 -6 -4 -8 -10 -5 -6 3 -10 -4 -10 -17 0
-18 -2 -20 -10 -8 -8 12 -10 12 -10 1 0 -7 -11 -24 -25 -37 -14 -13 -25 -28
-25 -34 0 -5 -3 -9 -7 -8 -5 2 -8 1 -8 -2 0 -3 -21 -26 -47 -51 -26 -26 -45
-49 -42 -52 3 -3 -4 -8 -15 -12 -12 -3 -19 -11 -16 -16 4 -5 -1 -9 -9 -9 -9 0
-13 -6 -10 -14 3 -9 -3 -17 -15 -21 -12 -3 -19 -11 -16 -16 4 -5 2 -9 -4 -9
-5 0 -18 -13 -27 -29 -10 -17 -21 -28 -26 -25 -4 3 -8 0 -8 -6 0 -6 -9 -20
-20 -32 -10 -12 -17 -26 -13 -31 4 -6 1 -7 -6 -3 -8 5 -14 0 -18 -13 -3 -12
-11 -21 -19 -21 -8 0 -11 -6 -7 -17 4 -10 2 -14 -4 -10 -6 4 -13 -3 -16 -14
-3 -12 -10 -18 -17 -14 -6 3 -10 3 -9 -2 3 -19 -15 -54 -26 -50 -6 3 -12 0
-12 -7 0 -16 -44 -76 -55 -76 -5 0 -7 -4 -3 -9 3 -6 -2 -14 -11 -19 -9 -5 -17
-13 -17 -18 -1 -5 -5 -8 -9 -7 -4 2 -5 -4 -2 -12 4 -8 -1 -17 -10 -21 -9 -3
-13 -10 -10 -15 3 -5 0 -9 -7 -9 -7 0 -10 -3 -6 -6 3 -3 -6 -17 -19 -29 -14
-13 -24 -26 -22 -29 2 -3 -5 -14 -14 -26 -10 -11 -14 -20 -10 -20 4 0 2 -4 -3
-8 -15 -10 -50 -66 -47 -75 1 -4 -5 -10 -13 -13 -8 -3 -12 -10 -9 -15 3 -5 0
-9 -5 -9 -6 0 -11 -6 -11 -14 0 -8 -7 -16 -15 -20 -8 -3 -15 -14 -15 -24 0
-11 -7 -25 -15 -32 -8 -7 -12 -16 -9 -21 3 -5 1 -9 -4 -9 -5 0 -20 -21 -33
-47 -13 -27 -27 -49 -31 -51 -5 -2 -8 -12 -8 -23 0 -10 -4 -19 -9 -19 -5 0
-15 -16 -22 -35 -7 -19 -17 -35 -22 -35 -4 0 -6 -4 -3 -9 3 -5 -1 -12 -10 -15
-9 -3 -14 -12 -12 -18 3 -7 -1 -19 -9 -26 -7 -8 -11 -18 -8 -23 4 -5 1 -9 -4
-9 -6 0 -10 -3 -9 -7 3 -16 -15 -43 -25 -36 -5 3 -7 1 -3 -5 7 -12 -13 -62
-26 -62 -4 0 -7 -3 -6 -7 3 -13 -13 -53 -21 -53 -4 0 -8 -6 -8 -12 -1 -19 -7
-42 -14 -48 -13 -12 -48 -94 -43 -102 3 -4 0 -8 -7 -8 -7 0 -9 -3 -6 -7 4 -3
1 -13 -5 -21 -7 -8 -13 -19 -14 -26 -1 -6 -12 -33 -25 -61 -13 -27 -24 -56
-25 -64 -2 -8 -9 -18 -16 -22 -11 -7 -11 -9 0 -9 10 0 10 -4 -2 -16 -9 -8 -16
-24 -16 -35 0 -10 -5 -19 -11 -19 -5 0 -8 -4 -5 -9 7 -10 -24 -92 -33 -86 -4
2 -7 -4 -8 -13 -1 -19 -26 -91 -48 -137 -15 -32 -39 -95 -41 -107 -1 -5 -3
-10 -4 -13 -1 -3 -3 -8 -5 -12 -1 -5 -7 -21 -13 -36 -7 -15 -15 -40 -18 -55
-4 -15 -11 -33 -17 -39 -5 -7 -6 -13 -2 -13 4 0 1 -7 -6 -17 -8 -9 -12 -18
-11 -20 8 -8 -22 -103 -32 -104 -38 -4 -112 -9 -148 -12 -24 -1 -49 -6 -55
-10 -8 -5 -13 -3 -13 4 0 8 -4 8 -15 -1 -12 -10 -15 -10 -15 1 0 9 -3 10 -8 4
-4 -6 -27 -10 -52 -10 -25 1 -50 -3 -57 -7 -7 -6 -14 -4 -19 3 -5 8 -3 9 6 4
9 -5 11 -4 6 4 -5 8 -12 9 -19 3 -7 -6 -31 -9 -54 -8 -24 1 -43 -2 -43 -8 0
-5 -10 -1 -22 10 -12 10 -18 13 -13 5 6 -11 4 -13 -8 -8 -10 4 -17 2 -17 -5 0
-7 -5 -7 -12 -1 -7 5 -35 8 -63 7 -27 -1 -55 2 -62 7 -7 7 -13 6 -17 0 -7 -11
-75 -9 -93 2 -6 4 -13 3 -17 0 -12 -12 -56 -11 -56 1 0 7 -3 8 -8 1 -4 -6 -32
-11 -62 -12 -140 -3 -248 -11 -260 -18 -7 -4 -16 -2 -20 5 -4 7 -10 8 -13 3
-3 -4 -35 -8 -71 -8 -51 1 -67 -2 -70 -15 -4 -13 -17 -86 -30 -170 -3 -14 -5
-25 -6 -25 -1 0 -3 -11 -5 -25 -4 -27 -12 -70 -21 -108 -2 -13 -7 -42 -10 -64
-7 -46 -12 -72 -14 -75 -2 -3 -5 -18 -9 -54 -1 -7 -15 -8 -43 -3 -55 9 -83 13
-138 18 -25 3 -59 7 -75 10 -73 11 -165 17 -165 9 -2 -25 -12 -93 -20 -128 -5
-22 -12 -56 -15 -75 -3 -19 -9 -44 -12 -55 -3 -11 -7 -29 -9 -40 -1 -11 -7
-49 -14 -83 -6 -35 -13 -78 -15 -95 -2 -18 -7 -50 -11 -72 -3 -22 -7 -49 -8
-60 -1 -11 -5 -30 -9 -41 -7 -19 -12 -21 -45 -14 -20 5 -53 11 -72 14 -19 3
-46 8 -60 11 -14 3 -59 10 -100 16 -41 5 -91 12 -110 15 -19 3 -56 7 -81 8
-25 1 -50 5 -55 8 -17 10 -169 2 -191 -10 -32 -17 -47 -50 -68 -142 -1 -3 -4
-18 -8 -35 -18 -75 -37 -164 -42 -190 -5 -36 -36 -179 -47 -220 -5 -22 -11
-47 -13 -55 -21 -105 -32 -128 -66 -135 -26 -6 -79 -3 -184 10 -22 3 -68 7
-102 9 -35 3 -68 8 -74 11 -7 5 -9 -4 -7 -26 2 -19 8 -34 13 -35 14 0 149 -17
155 -19 41 -12 151 -27 191 -26 59 1 85 16 107 63 31 63 84 262 86 316 0 12 4
22 8 22 4 0 7 3 6 8 -2 6 10 85 18 117 1 6 5 28 8 51 4 22 11 55 16 73 5 17 9
32 9 34 0 1 3 26 7 55 5 43 11 55 30 62 30 12 228 2 314 -15 14 -3 39 -7 55
-10 17 -2 41 -6 55 -9 14 -3 61 -13 105 -21 140 -27 128 -21 121 -63 -3 -20
-8 -46 -10 -58 -2 -12 -7 -45 -11 -74 -4 -29 -9 -62 -11 -74 -2 -12 -7 -41
-10 -66 -3 -25 -8 -47 -9 -50 -2 -3 -6 -25 -10 -50 -4 -25 -8 -47 -10 -50 -5
-9 -18 -93 -19 -125 -1 -24 6 -33 38 -51 22 -12 67 -31 100 -42 34 -11 75 -26
91 -33 94 -38 164 -61 193 -62 l34 -1 -6 -56 c-4 -30 -9 -68 -12 -85 -3 -16
-7 -43 -9 -60 -2 -16 -7 -46 -11 -65 -3 -19 -7 -48 -9 -65 -2 -16 -4 -30 -5
-30 -1 0 -3 -13 -5 -30 -2 -16 -6 -46 -9 -65 -3 -19 -8 -53 -11 -75 -3 -22 -7
-49 -10 -60 -6 -29 3 -39 62 -68 28 -15 54 -31 58 -37 4 -6 11 -8 16 -5 5 4 9
1 9 -4 0 -6 4 -11 10 -11 5 0 39 -18 75 -40 36 -22 67 -40 70 -40 4 0 66 -38
145 -88 14 -9 28 -15 33 -14 4 1 7 -2 7 -7 0 -5 14 -14 30 -21 17 -7 30 -16
30 -21 0 -5 9 -9 20 -9 28 0 25 -12 -10 -35 -23 -15 -28 -25 -25 -45 3 -14 8
-41 11 -60 3 -19 7 -42 9 -50 6 -23 16 -104 19 -155 3 -55 -29 -113 -133 -240
-36 -44 -72 -88 -81 -99 -8 -10 -20 -23 -26 -30 -41 -44 -73 -100 -65 -115 5
-9 28 -72 52 -141 79 -234 87 -255 99 -285 7 -16 14 -34 15 -40 3 -13 82 -210
100 -250 29 -63 108 -271 108 -282 1 -22 51 -62 87 -68 35 -6 147 -39 185 -55
11 -4 47 -18 80 -30 33 -12 69 -26 80 -30 11 -5 83 -32 160 -61 165 -61 191
-77 192 -116 0 -15 3 -104 7 -198 4 -93 8 -192 8 -220 0 -27 3 -54 6 -60 3 -5
7 -25 8 -45 7 -96 26 -275 39 -354 26 -159 40 -176 139 -171 35 1 72 8 84 14
18 10 67 8 112 -4 39 -11 165 -25 255 -28 51 -2 159 -45 260 -103 96 -55 288
-151 367 -183 32 -13 60 -32 63 -42 3 -9 31 -37 63 -60 31 -24 65 -51 75 -61
10 -10 22 -18 26 -18 11 0 111 -196 111 -216 0 -8 5 -14 10 -14 6 0 9 -3 8 -7
-2 -11 70 -177 88 -201 2 -2 20 2 41 9 21 7 43 14 48 15 6 1 44 11 85 22 41
11 84 19 95 19 19 0 45 -19 45 -32 0 -8 131 -196 150 -215 3 -3 21 -27 39 -55
19 -27 38 -52 41 -55 3 -3 35 -43 70 -90 35 -47 68 -87 72 -88 4 -2 8 -8 8
-13 0 -8 105 -158 133 -189 7 -8 28 -35 47 -60 19 -25 37 -47 40 -50 3 -3 35
-41 70 -85 121 -151 153 -190 160 -195 3 -3 13 -14 21 -26 12 -19 88 -110 114
-138 12 -13 112 -129 148 -171 14 -16 65 -77 112 -134 48 -58 137 -156 198
-219 198 -202 182 -175 187 -323 6 -204 4 -821 -4 -1014 -12 -308 -16 -376
-22 -386 -3 -5 0 -9 6 -9 6 0 8 -5 5 -10 -4 -6 -8 -31 -10 -55 -4 -60 -47
-111 -235 -279 -79 -71 -245 -176 -278 -176 -6 0 -12 -3 -14 -8 -3 -7 -236
-102 -252 -102 -4 0 -22 -6 -39 -14 -33 -14 -240 -85 -267 -91 -8 -2 -35 -11
-60 -20 -25 -9 -56 -19 -69 -21 -13 -3 -32 -9 -43 -15 -10 -5 -18 -7 -18 -3 0
3 -6 2 -13 -4 -7 -6 -24 -13 -37 -15 -14 -2 -32 -7 -40 -10 -59 -26 -179 -64
-184 -59 -3 3 -6 0 -6 -6 0 -7 -3 -11 -7 -10 -12 3 -77 -13 -88 -22 -5 -5 -13
-8 -18 -8 -21 -1 -73 -16 -84 -24 -7 -6 -13 -8 -13 -5 0 3 -45 -10 -99 -29
-80 -28 -223 -68 -421 -119 -8 -2 -40 -11 -70 -20 -30 -9 -66 -18 -80 -20 -14
-2 -74 -15 -133 -30 -59 -14 -118 -27 -130 -29 -12 -3 -22 -5 -22 -6 0 -1 -8
-3 -17 -5 -9 -2 -40 -8 -70 -14 -29 -7 -68 -14 -87 -17 -19 -3 -45 -10 -59
-15 -14 -5 -27 -8 -29 -5 -3 2 -28 -2 -56 -11 -29 -8 -62 -17 -74 -19 -13 -2
-35 -6 -50 -9 -16 -3 -37 -8 -48 -10 -11 -2 -31 -6 -45 -9 -25 -6 -87 -16
-127 -21 -11 -2 -30 -6 -41 -9 -11 -4 -29 -9 -39 -11 -100 -21 -262 -60 -323
-77 -41 -11 -79 -21 -85 -23 -5 -1 -30 -8 -55 -15 -25 -7 -50 -14 -57 -16 -6
-1 -27 -7 -45 -13 -18 -6 -46 -13 -63 -16 -38 -8 -60 -13 -60 -15 0 -1 -9 -3
-20 -5 -11 -2 -36 -8 -55 -14 -19 -6 -67 -19 -105 -31 -39 -11 -79 -22 -90
-24 -11 -3 -67 -19 -125 -36 -58 -17 -109 -32 -115 -34 -5 -2 -23 -8 -38 -14
-16 -7 -34 -12 -41 -12 -6 0 -16 -4 -22 -10 -5 -5 -18 -11 -29 -13 -11 -2 -27
-6 -35 -10 -18 -6 -42 -14 -55 -17 -5 -1 -31 -11 -57 -21 -27 -10 -48 -16 -48
-13 0 3 -12 -1 -28 -9 -23 -12 -80 -37 -142 -61 -15 -6 -82 -42 -205 -110 -89
-49 -247 -158 -285 -196 -3 -3 -39 -34 -80 -70 -41 -36 -85 -75 -97 -87 -12
-13 -25 -23 -28 -23 -9 0 -213 -208 -265 -270 -25 -29 -50 -58 -56 -64 -28
-29 -48 -70 -36 -74 6 -2 12 -10 12 -18 0 -12 1143 -14 8280 -14 6619 0 8279
3 8277 13 -1 6 -12 22 -25 34 -13 13 -18 23 -13 23 6 0 -2 13 -17 29 -43 47
-53 61 -46 61 4 0 -1 9 -12 19 -10 11 -28 31 -39 46 -11 15 -33 40 -48 56 -15
16 -25 29 -21 29 3 0 1 7 -6 15 -7 8 -16 12 -21 9 -5 -3 -6 2 -3 10 3 9 -2 17
-15 21 -11 3 -20 10 -18 14 1 4 -20 30 -48 59 -27 28 -58 61 -67 73 -10 13
-18 20 -18 15 0 -4 -12 7 -26 24 -15 17 -28 29 -31 27 -2 -2 -26 18 -54 44
-48 46 -61 54 -82 50 -5 -1 -6 3 -3 8 8 12 -34 42 -47 34 -6 -3 -7 -1 -3 5 3
6 -11 20 -34 33 -22 13 -40 26 -40 31 0 4 -7 8 -15 8 -8 0 -15 5 -15 10 0 6
-7 10 -15 10 -8 0 -15 5 -15 10 0 6 -7 10 -15 10 -8 0 -15 5 -15 11 0 5 -4 8
-9 5 -5 -3 -11 1 -15 9 -3 8 -12 15 -21 15 -8 0 -15 5 -15 11 0 5 -5 7 -10 4
-6 -3 -10 -2 -10 3 0 5 -13 15 -30 22 -16 7 -30 17 -30 22 0 5 -4 6 -10 3 -5
-3 -10 -1 -10 5 0 6 -4 9 -9 6 -5 -3 -11 1 -15 9 -3 8 -17 15 -31 15 -16 0
-25 6 -25 16 0 8 -4 12 -10 9 -5 -3 -10 -1 -10 4 0 6 -5 11 -11 11 -5 0 -7 -6
-4 -12 3 -7 -2 -3 -11 10 -9 12 -24 22 -33 22 -9 0 -22 5 -29 12 -7 7 -12 8
-12 3 0 -5 -7 0 -16 11 -8 10 -13 12 -9 4 4 -9 0 -7 -9 4 -8 10 -19 15 -24 12
-6 -3 -12 -3 -14 2 -3 9 -93 52 -108 52 -5 0 -10 4 -10 10 0 5 -7 7 -15 4 -8
-4 -15 -2 -15 3 0 5 -6 10 -12 11 -48 6 -60 9 -66 18 -6 8 -32 15 -72 18 -8 0
-17 4 -20 8 -3 4 -20 8 -38 10 -18 1 -32 5 -32 8 0 7 -12 9 -47 11 -10 0 -25
3 -33 6 -15 6 -64 14 -87 16 -7 0 -13 3 -13 7 0 4 -6 7 -12 8 -7 0 -26 3 -43
6 -16 4 -45 9 -62 12 -18 4 -33 11 -33 16 0 5 -4 7 -9 3 -5 -3 -12 -1 -15 3
-3 5 -15 8 -28 7 -13 -1 -27 1 -33 5 -16 13 -113 39 -119 33 -3 -4 -6 -2 -6 3
0 5 -8 11 -17 12 -23 2 -44 8 -63 15 -8 4 -26 8 -40 9 -14 2 -30 7 -36 10 -6
4 -25 9 -43 10 -17 1 -31 5 -31 8 0 4 -6 7 -12 8 -51 4 -88 11 -104 19 -10 6
-31 9 -46 8 -16 -1 -28 1 -28 5 0 4 -17 11 -37 15 -21 4 -49 9 -63 12 -14 3
-32 6 -40 7 -8 0 -17 4 -21 8 -3 4 -18 9 -35 11 -16 2 -36 7 -43 11 -6 4 -22
9 -34 11 -12 2 -41 7 -64 11 -24 4 -43 10 -43 13 0 4 -10 7 -22 8 -23 1 -55 8
-88 18 -10 3 -28 8 -39 10 -12 3 -31 8 -43 11 -13 3 -28 6 -35 8 -7 1 -16 5
-19 9 -4 4 -20 7 -36 7 -15 0 -28 4 -28 8 0 4 -8 8 -17 9 -10 0 -29 4 -43 8
-14 4 -33 8 -42 8 -9 1 -14 5 -12 9 3 4 -3 9 -13 10 -10 0 -22 2 -28 3 -5 2
-14 4 -20 5 -5 1 -13 2 -17 1 -5 0 -8 3 -8 7 0 5 -24 14 -52 22 -29 7 -60 16
-68 21 -34 17 -116 44 -132 43 -10 -1 -18 3 -18 8 0 5 -4 6 -10 3 -6 -3 -10
-1 -10 4 0 6 -11 11 -23 11 -13 0 -27 3 -31 7 -3 4 -14 8 -22 9 -9 1 -23 6
-32 10 -21 9 -43 15 -59 16 -7 1 -13 5 -13 10 0 5 -4 6 -10 3 -5 -3 -10 -1
-10 5 0 6 -4 9 -8 6 -5 -3 -20 1 -35 9 -14 7 -28 10 -32 7 -3 -4 -9 -2 -13 3
-4 6 -29 18 -57 28 -27 11 -70 26 -95 35 -25 10 -48 22 -52 27 -4 6 -8 6 -8 1
0 -5 -7 -3 -15 4 -8 6 -19 9 -25 5 -5 -3 -10 -1 -10 4 0 6 -12 11 -26 11 -15
0 -23 4 -19 10 4 6 3 9 -2 8 -11 -3 -105 23 -119 33 -6 5 -20 10 -32 12 -12 2
-25 6 -28 10 -4 4 -16 7 -26 7 -10 0 -18 6 -18 13 0 8 -4 7 -10 -3 -5 -8 -10
-10 -10 -5 0 9 -60 35 -87 37 -7 1 -13 5 -13 10 0 4 -7 8 -15 8 -13 0 -70 26
-162 74 -18 10 -35 22 -38 27 -4 5 -11 7 -16 4 -5 -4 -9 -1 -9 4 0 6 -5 11
-11 11 -6 0 -23 9 -37 19 -29 21 -170 71 -216 77 -15 2 -35 9 -44 16 -8 7 -17
12 -19 11 -1 -2 -4 -3 -5 -2 -2 0 -10 2 -19 4 -9 1 -32 10 -50 18 -31 14 -76
30 -89 32 -6 0 -73 31 -122 56 -21 10 -38 16 -38 13 0 -3 -13 4 -30 16 -16 12
-30 18 -30 13 0 -4 -5 0 -11 9 -5 10 -15 18 -20 18 -15 0 -109 103 -103 112 3
4 1 8 -4 8 -9 0 -62 98 -66 123 -1 7 -8 22 -14 35 -7 12 -11 26 -8 31 3 4 -1
17 -9 27 -8 10 -15 27 -15 37 0 9 -4 17 -8 17 -8 0 -16 114 -14 200 1 25 3
239 6 475 2 237 7 536 11 665 4 129 8 260 9 290 1 30 5 61 9 68 5 6 4 12 -1
12 -5 0 -8 12 -6 27 2 16 6 71 9 123 7 150 14 258 21 350 4 47 8 101 8 120 1
19 5 40 9 47 4 6 3 14 -3 18 -6 4 -7 12 -3 18 4 6 8 29 9 52 1 22 3 40 4 40 1
0 2 10 14 166 4 48 9 104 11 125 4 41 13 127 19 204 12 132 18 209 22 240 2
19 6 73 9 120 4 47 8 101 10 120 3 19 7 121 9 225 5 180 12 288 22 338 2 12 5
39 6 59 1 20 4 35 8 33 3 -2 15 8 26 22 10 15 26 34 35 42 17 17 113 131 164
195 17 21 37 46 45 56 8 10 33 39 55 66 22 27 65 78 96 114 30 36 64 76 75 88
62 76 57 72 94 62 19 -5 55 -12 80 -15 25 -3 59 -8 75 -11 17 -3 44 -7 60 -9
17 -2 51 -6 78 -9 26 -3 68 -8 95 -11 26 -3 63 -8 82 -10 36 -5 115 -13 205
-20 28 -2 73 -6 100 -9 80 -8 195 -17 268 -21 65 -3 68 -3 78 22 5 14 25 57
44 94 19 38 32 69 28 69 -3 0 -1 6 4 13 6 6 36 73 67 147 32 74 68 159 82 188
13 29 24 55 24 57 0 2 14 35 31 72 17 38 42 96 56 131 14 35 28 61 31 58 2 -3
19 1 36 8 34 14 41 16 56 16 12 0 110 197 102 205 -3 3 0 5 6 5 7 0 12 5 12
11 0 6 8 23 19 37 10 15 22 38 26 52 4 14 11 27 14 30 3 3 21 34 40 70 18 36
46 88 61 115 15 28 40 74 56 104 l28 53 -28 52 c-16 28 -52 87 -81 131 -28 44
-66 103 -83 130 -17 28 -36 55 -41 61 -15 18 -23 54 -12 54 6 0 11 7 11 15 0
14 76 146 168 289 l50 77 -34 70 c-19 38 -34 72 -34 75 0 6 -43 101 -76 166
-25 50 -31 88 -14 88 5 0 7 6 4 13 -3 8 29 42 78 83 126 105 188 165 188 183
0 14 -77 179 -90 191 -3 3 -11 16 -18 30 -13 27 -34 62 -42 70 -5 5 -18 27
-44 75 -6 11 -16 27 -22 35 -31 40 -26 57 31 114 30 31 55 61 55 68 0 6 3 9 6
5 8 -7 34 17 34 32 0 6 4 10 9 9 5 -2 10 0 11 4 1 3 65 70 141 148 76 78 139
146 139 151 0 5 4 9 10 9 5 0 29 21 52 47 24 25 62 65 85 88 23 24 39 45 36
49 -4 3 1 6 10 6 9 0 17 3 17 8 0 4 23 31 50 60 51 54 56 63 43 76 -4 3 -8 12
-9 19 -1 7 -16 50 -34 97 -17 47 -33 90 -34 95 -2 6 -6 17 -9 25 -4 8 -20 58
-37 110 -17 52 -35 104 -40 115 -19 44 -22 65 -7 59 20 -7 80 19 137 61 26 19
53 35 59 35 6 0 11 3 11 8 0 4 15 13 33 21 17 8 51 27 74 43 l42 28 -16 38
c-8 20 -25 60 -38 87 -30 65 -126 284 -156 355 -12 30 -26 60 -31 67 -6 7 -1
14 14 19 13 4 50 19 83 34 33 15 114 49 180 75 66 26 134 53 150 60 92 39 178
66 185 59 4 -5 31 -70 59 -144 29 -74 60 -153 70 -175 10 -22 29 -62 41 -90
32 -71 140 -342 140 -352 0 -4 8 -18 18 -30 17 -23 48 -30 87 -20 68 17 163
45 210 63 11 4 25 8 30 10 6 1 78 25 160 54 83 28 182 62 222 74 l72 24 25
-52 c25 -51 71 -172 106 -276 50 -147 103 -299 117 -330 8 -19 19 -44 23 -55
5 -11 22 -50 39 -86 50 -109 70 -110 344 -20 122 40 235 75 277 86 103 28 100
26 100 56 0 28 -12 44 -24 32 -4 -4 -12 -8 -19 -9 -30 -7 -193 -55 -316 -94
-74 -23 -140 -43 -145 -44 -6 -1 -16 -5 -23 -9 -7 -4 -34 -10 -62 -13 l-50 -5
-31 68 c-40 86 -80 185 -115 288 -15 44 -29 87 -32 95 -13 36 -76 208 -89 243
-21 56 -73 154 -90 167 -12 11 -51 9 -89 -3 -5 -2 -102 -34 -215 -71 -113 -38
-212 -70 -220 -71 -8 -2 -16 -4 -17 -5 -2 -2 -6 -3 -10 -5 -5 -1 -15 -4 -23
-7 -8 -3 -55 -18 -104 -33 -105 -32 -97 -37 -146 88 -18 45 -38 96 -45 112 -7
17 -23 55 -35 85 -13 30 -32 75 -43 100 -11 25 -20 50 -22 55 -1 6 -7 21 -13
35 -9 23 -23 57 -27 70 -1 3 -12 39 -25 80 -13 41 -25 77 -25 80 0 3 -9 28
-18 56 -24 71 -51 84 -120 60 -29 -10 -65 -24 -82 -31 -16 -8 -75 -31 -130
-53 -218 -87 -288 -115 -333 -137 l-47 -23 -47 96 c-26 54 -48 102 -48 108 0
6 -7 17 -15 24 -9 7 -14 15 -11 17 4 4 -46 115 -74 165 -6 10 -10 24 -10 32 0
8 -5 18 -10 21 -13 8 -227 -99 -261 -131 -14 -13 -30 -24 -35 -24 -5 0 -27 48
-48 108 -21 59 -44 121 -52 139 -8 17 -14 36 -14 42 0 6 -4 19 -9 29 -9 15
-67 168 -75 197 -2 6 -6 19 -10 30 -5 11 -14 36 -21 55 -13 35 -14 35 -72 28
-7 -1 -13 -6 -13 -11 0 -6 -3 -8 -6 -4 -4 3 -23 -1 -43 -9 -20 -8 -37 -15 -38
-15 -4 1 -11 -1 -88 -23 -33 -10 -67 -20 -75 -24 -8 -3 -19 -7 -25 -8 -5 -1
-13 -3 -17 -4 -5 -1 -12 -4 -18 -5 -5 -1 -12 -4 -15 -5 -3 -1 -9 -4 -15 -5 -5
-1 -11 -3 -12 -4 -2 -2 -14 -5 -28 -7 -13 -2 -28 -10 -32 -17 -6 -9 -8 -8 -8
3 0 12 -2 12 -9 2 -4 -8 -11 -13 -15 -13 -3 1 -7 1 -8 0 -2 0 -11 -2 -20 -4
-27 -5 -121 -35 -138 -44 -8 -4 -23 -7 -32 -5 -10 1 -18 -2 -18 -7 0 -5 -3 -8
-7 -7 -5 1 -26 -4 -47 -10 -22 -6 -43 -9 -47 -7 -4 3 -9 1 -11 -4 -1 -6 -14
-11 -28 -13 -14 -2 -31 -7 -37 -11 -7 -5 -17 -5 -23 -2 -5 3 -10 1 -10 -4 0
-6 -9 -11 -19 -11 -11 0 -32 -5 -48 -12 -15 -6 -30 -12 -33 -13 -53 -16 -98
-28 -107 -28 -7 0 -13 -5 -13 -10 0 -6 -3 -7 -7 -4 -3 4 -13 1 -21 -6 -13 -10
-14 -9 -8 1 6 10 1 10 -22 -2 -16 -8 -32 -12 -36 -9 -3 4 -6 2 -6 -4 0 -5 -6
-10 -12 -11 -18 -1 -141 -36 -153 -43 -21 -12 -50 -4 -49 14 1 9 -2 17 -6 17
-4 0 -7 15 -6 33 1 17 -5 38 -12 46 -8 8 -12 25 -9 38 2 13 0 26 -5 29 -4 3
-6 10 -3 15 4 5 2 9 -4 9 -5 0 -8 9 -6 20 2 11 1 20 -3 20 -4 0 -8 10 -9 23
-3 31 -8 50 -14 62 -4 6 -5 18 -4 28 2 10 -1 14 -7 10 -7 -4 -9 2 -6 15 4 12
2 22 -3 22 -5 0 -8 3 -7 8 4 17 -15 72 -25 72 -7 0 -6 4 3 10 11 7 11 10 2 10
-7 0 -10 5 -7 10 3 6 0 10 -7 10 -9 0 -9 3 2 10 10 6 11 10 3 10 -7 0 -12 3
-12 8 1 4 0 9 -1 12 -1 3 -3 12 -5 20 -8 37 -10 45 -18 51 -4 3 -9 20 -10 37
-1 18 -8 34 -14 36 -7 3 -10 12 -7 21 4 9 1 15 -7 15 -11 0 -11 3 1 10 8 5 10
10 4 10 -13 0 -23 20 -31 60 -2 13 -10 28 -16 32 -7 4 -8 8 -3 8 5 0 3 7 -4
15 -7 8 -9 15 -6 15 4 0 1 10 -6 23 -7 12 -11 25 -10 30 1 4 -2 7 -6 7 -5 0
-9 6 -10 13 -3 38 -8 53 -20 60 -7 5 -10 12 -7 18 4 5 1 9 -6 9 -7 0 -9 3 -6
7 4 3 2 12 -5 20 -6 7 -8 16 -5 19 3 4 -1 13 -9 21 -8 8 -12 19 -9 24 4 5 3 9
-2 9 -4 0 -14 15 -21 33 -25 61 -36 82 -52 101 -13 16 -13 18 0 11 8 -5 5 4
-8 19 -12 16 -19 32 -16 37 3 5 0 9 -5 9 -6 0 -11 5 -11 11 0 7 -8 18 -17 26
-10 8 -12 12 -5 8 6 -3 12 -2 12 3 0 6 -7 12 -15 16 -8 3 -15 14 -15 24 0 10
-9 28 -20 40 -23 24 -26 37 -7 26 6 -4 0 6 -16 23 -15 16 -24 32 -20 36 3 4 1
7 -6 7 -7 0 -9 5 -6 10 3 6 -1 13 -9 16 -9 3 -16 14 -16 23 0 10 -9 27 -20 39
-12 12 -18 22 -14 22 4 0 -1 9 -11 20 -10 11 -14 20 -9 20 5 0 1 5 -8 11 -10
5 -18 17 -18 24 0 8 -4 15 -10 15 -5 0 -10 9 -10 21 0 11 -4 18 -9 14 -5 -3
-13 5 -17 17 -3 12 -14 29 -23 37 -12 12 -13 13 -1 6 17 -11 -13 29 -44 57
-11 10 -16 21 -13 25 4 3 -6 17 -21 31 -15 13 -20 21 -12 17 8 -4 2 4 -14 19
-16 14 -25 26 -21 26 5 0 1 6 -10 13 -10 8 -15 19 -11 25 4 7 1 12 -8 12 -9 0
-16 4 -16 9 0 4 -11 20 -25 35 -13 14 -21 26 -18 26 3 0 -4 9 -17 20 -13 11
-19 20 -15 20 4 0 -6 13 -23 29 -16 16 -28 32 -24 35 3 3 0 6 -6 6 -7 0 -12 7
-12 16 0 8 -4 13 -9 9 -6 -3 -15 5 -22 17 -7 13 -18 27 -26 31 -7 5 -11 12 -8
17 3 5 -4 11 -15 15 -11 3 -20 13 -20 21 0 8 -4 12 -10 9 -5 -3 -10 -1 -10 5
0 7 -14 25 -30 40 -16 15 -30 34 -30 41 0 7 -3 10 -6 7 -9 -10 -64 54 -57 66
4 6 -2 4 -12 -4 -17 -14 -18 -13 -13 2 6 15 -15 34 -34 30 -4 -1 -5 5 -2 13 4
8 2 15 -3 15 -6 0 -20 9 -33 20 -13 11 -19 20 -14 20 5 0 -2 6 -16 13 -14 8
-24 19 -22 27 2 8 -3 10 -13 7 -9 -4 -15 -1 -15 8 0 8 -4 15 -8 15 -4 0 -24
15 -43 33 -55 49 -78 67 -90 67 -5 0 -8 3 -6 8 3 4 -1 13 -9 20 -8 7 -14 9
-14 5 0 -4 -5 0 -11 10 -5 9 -16 17 -23 17 -8 0 -17 7 -20 16 -3 9 -11 12 -18
8 -8 -5 -9 -2 -5 9 3 9 3 16 -1 15 -17 -5 -52 15 -52 28 0 8 -4 12 -10 9 -5
-3 -10 -1 -10 4 0 6 -7 11 -15 11 -8 0 -15 5 -15 10 0 6 -7 10 -15 10 -8 0
-19 9 -24 19 -6 10 -24 24 -41 30 -36 12 -62 35 -52 46 4 5 2 5 -4 2 -14 -8
-66 27 -57 38 5 5 0 3 -9 -4 -16 -12 -18 -11 -18 4 0 11 -5 15 -16 11 -8 -3
-12 -2 -9 4 3 6 1 10 -5 10 -6 0 -20 9 -32 20 -12 11 -30 20 -40 20 -10 0 -21
6 -24 14 -3 9 -12 12 -22 9 -12 -5 -14 -2 -9 11 4 9 3 15 -1 12 -5 -3 -21 2
-36 9 -24 13 -284 15 -1867 15 -1649 0 -1838 -2 -1832 -15z m1214 -10028 c-10
-9 -11 -8 -5 6 3 10 9 15 12 12 3 -3 0 -11 -7 -18z m595 -472 c10 -8 15 -14 9
-14 -5 0 -19 6 -29 14 -11 8 -15 15 -10 15 6 0 19 -7 30 -15z m-1466 -1909 c0
-3 -4 -8 -10 -11 -5 -3 -10 -1 -10 4 0 6 5 11 10 11 6 0 10 -2 10 -4z"/>
</g>
</svg>
